<svg width="56" height="54" viewBox="0 0 56 54" fill="none" xmlns="http://www.w3.org/2000/svg">
<rect x="0.0834961" y="0.889404" width="55" height="52.9038" rx="26.4519" fill="white"/>
<path d="M32.8809 32.381C32.5104 32.2766 32.231 32.0571 32.0424 31.7225C31.8546 31.3874 31.8064 31.0395 31.8976 30.6788L33.1858 25.5829L20.3183 32.7288C19.9913 32.9104 19.65 32.9511 19.2944 32.8509C18.9401 32.751 18.664 32.5363 18.4662 32.2068C18.2684 31.8773 18.2129 31.5396 18.2997 31.1937C18.3877 30.8481 18.5952 30.5845 18.9222 30.403L31.7897 23.257L26.5113 21.7692C26.1409 21.6648 25.8596 21.4525 25.6674 21.1323C25.4757 20.8129 25.4254 20.4728 25.5167 20.112C25.6079 19.7512 25.8123 19.4826 26.1301 19.3062C26.447 19.1301 26.7907 19.0943 27.1612 19.1987L35.6343 21.5871C35.8196 21.6393 35.9771 21.7198 36.107 21.8286C36.2362 21.9378 36.3473 22.0699 36.4403 22.2249C36.5334 22.38 36.5968 22.5386 36.6305 22.7008C36.6635 22.8634 36.6572 23.0349 36.6116 23.2152L34.514 31.5129C34.4304 31.8436 34.2301 32.0969 33.9131 32.273C33.5953 32.4494 33.2513 32.4854 32.8809 32.381Z" fill="black"/>
</svg>
